<?xml version="1.0" standalone="no"?>
<!DOCTYPE svg PUBLIC "-//W3C//DTD SVG 20010904//EN"
 "http://www.w3.org/TR/2001/REC-SVG-20010904/DTD/svg10.dtd">
<svg version="1.0" xmlns="http://www.w3.org/2000/svg"
 width="512.000000pt" height="512.000000pt" viewBox="0 0 512.000000 512.000000"
 preserveAspectRatio="xMidYMid meet">

<g transform="translate(0.000000,512.000000) scale(0.100000,-0.100000)"
fill="#000000" stroke="none">
<path d="M2315 5109 c-786 -75 -1501 -518 -1927 -1196 -487 -774 -516 -1777
-75 -2578 198 -360 493 -682 833 -908 326 -216 686 -350 1099 -409 117 -16
512 -17 630 0 631 88 1152 360 1577 821 349 378 573 862 650 1406 20 139 17
503 -6 660 -21 155 -80 393 -131 531 -45 123 -167 374 -231 474 -196 309 -470
589 -769 788 -133 89 -391 218 -540 271 -357 126 -742 175 -1110 140z m532
-264 c351 -46 698 -174 978 -360 511 -340 872 -872 989 -1457 40 -198 49 -313
43 -533 -9 -359 -75 -629 -232 -950 -322 -658 -948 -1127 -1675 -1255 -158
-28 -477 -38 -630 -21 -457 52 -890 235 -1231 520 -531 443 -829 1080 -829
1769 0 370 75 695 235 1017 126 255 267 449 470 643 360 346 801 559 1300 626
140 19 437 19 582 1z"/>
<path d="M2360 3825 c-421 -70 -768 -325 -955 -703 -144 -292 -169 -635 -68
-956 53 -170 163 -354 292 -489 382 -399 977 -509 1478 -271 155 74 355 231
423 331 27 41 31 55 27 93 -7 61 -59 110 -118 110 -54 0 -72 -11 -154 -94
-559 -563 -1511 -307 -1717 462 -29 111 -36 331 -13 443 44 218 137 390 293
541 130 125 255 198 438 255 82 25 103 27 264 27 153 1 186 -2 260 -22 178
-49 343 -145 474 -277 83 -84 101 -95 155 -95 51 0 107 46 117 95 12 64 -3 93
-100 189 -176 176 -383 289 -636 347 -114 26 -345 33 -460 14z"/>
</g>
</svg>
