<?xml version="1.0" standalone="no"?>
<!DOCTYPE svg PUBLIC "-//W3C//DTD SVG 20010904//EN"
 "http://www.w3.org/TR/2001/REC-SVG-20010904/DTD/svg10.dtd">
<svg version="1.0" xmlns="http://www.w3.org/2000/svg"
 width="831.000000pt" height="99.000000pt" viewBox="0 0 831.000000 99.000000"
 preserveAspectRatio="xMidYMid meet">

<g transform="translate(0.000000,99.000000) scale(0.100000,-0.100000)"
fill="#000000" stroke="none">
<path d="M7800 980 c0 -5 7 -7 15 -4 8 4 15 8 15 10 0 2 -7 4 -15 4 -8 0 -15
-4 -15 -10z"/>
<path d="M7825 840 c-3 -5 -1 -10 4 -10 6 0 11 5 11 10 0 6 -2 10 -4 10 -3 0
-8 -4 -11 -10z"/>
<path d="M2965 628 c-22 -93 -22 -90 -9 -95 7 -2 18 24 28 64 9 37 19 76 22
86 3 11 0 17 -9 17 -10 0 -20 -24 -32 -72z"/>
<path d="M3036 683 c-3 -10 -10 -40 -16 -68 -6 -27 -13 -58 -16 -67 -3 -12 0
-18 9 -18 10 0 20 23 31 68 9 37 19 75 22 85 3 11 0 17 -10 17 -8 0 -17 -8
-20 -17z"/>
<path d="M3180 687 c-32 -16 -47 -67 -30 -106 22 -53 106 -61 138 -13 13 20
12 22 -9 31 -17 6 -26 5 -32 -5 -4 -8 -17 -14 -27 -14 -16 0 -20 7 -20 34 0
33 23 56 35 36 4 -6 17 -10 31 -10 30 0 32 24 2 44 -27 19 -54 20 -88 3z"/>
<path d="M4200 620 l0 -80 30 0 c30 0 30 1 30 55 0 48 2 55 20 55 18 0 20 -7
20 -55 0 -52 1 -55 25 -55 25 0 25 1 25 80 l0 80 -75 0 -75 0 0 -80z"/>
<path d="M5022 620 c-12 -49 -16 -83 -10 -86 14 -9 18 -2 39 78 23 88 23 88 5
88 -9 0 -21 -29 -34 -80z"/>
<path d="M5085 628 c-22 -93 -22 -90 -9 -95 7 -2 18 24 28 64 9 37 19 76 22
86 3 11 0 17 -9 17 -10 0 -20 -24 -32 -72z"/>
<path d="M3340 647 c-31 -16 -40 -76 -15 -97 21 -17 80 -16 102 1 14 12 13 14
-8 20 -24 7 -24 7 -1 8 14 1 22 7 22 19 0 44 -56 71 -100 49z m47 -33 c-3 -3
-12 -4 -19 -1 -8 3 -5 6 6 6 11 1 17 -2 13 -5z m0 -40 c-3 -3 -12 -4 -19 -1
-8 3 -5 6 6 6 11 1 17 -2 13 -5z"/>
<path d="M3487 653 l-38 -4 3 -77 c3 -71 5 -77 26 -80 18 -3 22 1 22 23 0 22
4 26 19 22 30 -8 61 20 61 54 0 27 -31 71 -47 67 -5 -1 -25 -3 -46 -5z m43
-58 c0 -26 -14 -33 -25 -15 -9 14 1 40 15 40 5 0 10 -11 10 -25z"/>
<path d="M3887 648 c-32 -11 -45 -48 -28 -84 14 -31 77 -38 109 -12 12 10 11
13 -5 19 -16 7 -16 8 0 8 11 1 17 9 17 25 0 40 -45 62 -93 44z m40 -34 c-3 -3
-12 -4 -19 -1 -8 3 -5 6 6 6 11 1 17 -2 13 -5z m0 -40 c-3 -3 -12 -4 -19 -1
-8 3 -5 6 6 6 11 1 17 -2 13 -5z"/>
<path d="M4420 653 c-50 -18 -65 -67 -30 -98 36 -32 110 -16 110 24 0 12 6 9
23 -11 12 -14 32 -29 43 -32 25 -7 70 10 78 29 6 16 -36 28 -45 13 -10 -17
-41 -1 -37 19 3 14 12 17 41 15 28 -2 37 1 37 13 0 15 -37 35 -67 35 -8 0 -28
-14 -44 -31 -18 -20 -29 -26 -29 -16 0 26 -49 51 -80 40z m33 -46 c3 -8 1 -20
-4 -28 -11 -19 -34 3 -26 25 8 20 23 21 30 3z"/>
<path d="M4683 650 c-27 -11 -29 -25 -7 -38 15 -8 15 -10 0 -15 -21 -8 -21
-43 0 -55 9 -5 37 -7 64 -4 41 4 48 2 53 -17 7 -27 27 -27 34 -1 8 30 73 29
73 -1 0 -14 5 -19 18 -17 20 4 29 55 13 71 -6 6 -11 26 -11 44 l0 33 -55 0
-55 0 0 -34 c0 -18 -7 -39 -15 -46 -13 -11 -15 -7 -15 29 0 35 -4 43 -26 51
-30 12 -42 12 -71 0z m187 -55 c0 -14 -4 -25 -9 -25 -4 0 -6 11 -3 25 2 14 6
25 8 25 2 0 4 -11 4 -25z m-135 -15 c-3 -5 -12 -10 -18 -10 -7 0 -6 4 3 10 19
12 23 12 15 0z"/>
<path d="M3600 595 c0 -52 1 -55 25 -55 23 0 25 4 25 40 0 33 3 40 20 40 11 0
20 7 20 15 0 11 -12 15 -45 15 l-45 0 0 -55z"/>
<path d="M3700 595 c0 -53 1 -55 26 -55 15 0 34 10 45 23 l18 22 1 -22 c0 -16
6 -23 20 -23 18 0 20 7 20 55 0 51 -2 55 -24 55 -13 0 -30 -10 -39 -22 l-16
-23 0 23 c-1 17 -7 22 -26 22 -24 0 -25 -3 -25 -55z"/>
<path d="M4000 595 l0 -56 53 3 52 3 0 50 0 50 -52 3 -53 3 0 -56z"/>
<path d="M3750 380 c-27 -27 -25 -40 4 -40 14 0 28 5 31 10 3 6 10 10 16 10
19 0 8 -22 -31 -59 -22 -21 -40 -43 -40 -49 0 -8 23 -12 65 -12 58 0 65 2 65
20 0 15 -7 20 -27 20 l-28 1 28 20 c33 25 37 73 8 89 -31 16 -69 12 -91 -10z"/>
<path d="M3902 384 c-17 -12 -22 -25 -22 -63 0 -59 17 -84 59 -84 45 0 66 25
66 77 0 73 -50 107 -103 70z m53 -69 c0 -21 -5 -40 -11 -42 -14 -5 -27 42 -19
68 11 33 30 15 30 -26z"/>
<path d="M4042 384 c-30 -21 -28 -44 3 -44 14 0 25 5 25 10 0 6 7 10 15 10 24
0 17 -14 -25 -53 -59 -53 -54 -67 25 -67 58 0 65 2 65 20 0 15 -7 20 -27 20
l-27 0 27 28 c15 15 27 35 27 44 0 21 -37 48 -65 48 -11 0 -31 -7 -43 -16z"/>
<path d="M4182 384 c-30 -21 -28 -44 3 -44 14 0 25 5 25 10 0 6 7 10 15 10 24
0 18 -13 -25 -55 -57 -55 -53 -65 25 -65 58 0 65 2 65 20 0 15 -7 20 -27 20
l-27 0 27 28 c32 33 34 53 9 75 -23 21 -61 22 -90 1z"/>
<path d="M3590 301 c0 -17 6 -21 36 -21 28 0 35 3 32 18 -2 11 -14 18 -36 20
-27 3 -32 0 -32 -17z"/>
<path d="M4370 301 c0 -17 6 -21 36 -21 28 0 35 3 32 18 -2 11 -14 18 -36 20
-27 3 -32 0 -32 -17z"/>
</g>
</svg>
